<mxfile host="65bd71144e" scale="1" border="20">
    <diagram id="CX3G9Xh7dB3GCvSDx5av" name="第 1 页">
        <mxGraphModel dx="2173" dy="1447" grid="0" gridSize="10" guides="1" tooltips="1" connect="1" arrows="1" fold="1" page="0" pageScale="1" pageWidth="1169" pageHeight="827" background="#ffffff" math="0" shadow="0">
            <root>
                <mxCell id="0"/>
                <mxCell id="1" parent="0"/>
                <mxCell id="323" style="edgeStyle=none;html=1;exitX=0.75;exitY=0;exitDx=0;exitDy=0;entryX=0.5;entryY=1;entryDx=0;entryDy=0;strokeColor=#000000;fontSize=28;" edge="1" parent="1" source="308" target="315">
                    <mxGeometry relative="1" as="geometry"/>
                </mxCell>
                <mxCell id="324" style="edgeStyle=none;html=1;exitX=1;exitY=0.25;exitDx=0;exitDy=0;entryX=0;entryY=1;entryDx=0;entryDy=0;strokeColor=#000000;fontSize=28;" edge="1" parent="1" source="308" target="316">
                    <mxGeometry relative="1" as="geometry"/>
                </mxCell>
                <mxCell id="325" style="edgeStyle=none;html=1;entryX=0;entryY=0.5;entryDx=0;entryDy=0;strokeColor=#000000;fontSize=28;" edge="1" parent="1" target="318">
                    <mxGeometry relative="1" as="geometry">
                        <mxPoint x="977" y="-126" as="sourcePoint"/>
                    </mxGeometry>
                </mxCell>
                <mxCell id="362" style="edgeStyle=none;html=1;exitX=0.5;exitY=1;exitDx=0;exitDy=0;entryX=0.5;entryY=0;entryDx=0;entryDy=0;strokeColor=#000000;fontSize=28;endArrow=none;endFill=0;" edge="1" parent="1" source="308" target="360">
                    <mxGeometry relative="1" as="geometry"/>
                </mxCell>
                <mxCell id="408" style="edgeStyle=none;html=1;exitX=0.5;exitY=0;exitDx=0;exitDy=0;entryX=0.5;entryY=1;entryDx=0;entryDy=0;strokeColor=#000000;fontSize=28;endArrow=classic;endFill=1;" edge="1" parent="1" source="308" target="313">
                    <mxGeometry relative="1" as="geometry"/>
                </mxCell>
                <mxCell id="409" style="edgeStyle=none;html=1;exitX=0;exitY=0;exitDx=0;exitDy=0;entryX=1;entryY=1;entryDx=0;entryDy=0;strokeColor=#000000;fontSize=28;endArrow=classic;endFill=1;" edge="1" parent="1" source="308" target="312">
                    <mxGeometry relative="1" as="geometry"/>
                </mxCell>
                <mxCell id="412" style="edgeStyle=none;html=1;exitX=0;exitY=0.5;exitDx=0;exitDy=0;entryX=1;entryY=0.5;entryDx=0;entryDy=0;strokeColor=#000000;fontSize=28;endArrow=classic;endFill=1;" edge="1" parent="1" source="308" target="314">
                    <mxGeometry relative="1" as="geometry"/>
                </mxCell>
                <mxCell id="308" value="学生" style="rounded=0;whiteSpace=wrap;html=1;fontSize=28;fillColor=#FFFFFF;strokeColor=#000000;fontColor=#000000;" vertex="1" parent="1">
                    <mxGeometry x="863" y="-161" width="113" height="90" as="geometry"/>
                </mxCell>
                <mxCell id="312" value="ID" style="ellipse;whiteSpace=wrap;html=1;fontSize=28;fillColor=#FFFFFF;strokeColor=#000000;fontColor=#000000;" vertex="1" parent="1">
                    <mxGeometry x="685" y="-317" width="120" height="80" as="geometry"/>
                </mxCell>
                <mxCell id="313" value="真实姓名" style="ellipse;whiteSpace=wrap;html=1;fontSize=28;fillColor=#FFFFFF;strokeColor=#000000;fontColor=#000000;" vertex="1" parent="1">
                    <mxGeometry x="824" y="-361" width="120" height="80" as="geometry"/>
                </mxCell>
                <mxCell id="314" value="班级" style="ellipse;whiteSpace=wrap;html=1;fontSize=28;fillColor=#FFFFFF;strokeColor=#000000;fontColor=#000000;" vertex="1" parent="1">
                    <mxGeometry x="625" y="-171" width="120" height="80" as="geometry"/>
                </mxCell>
                <mxCell id="315" value="手机号" style="ellipse;whiteSpace=wrap;html=1;fontSize=28;fillColor=#FFFFFF;strokeColor=#000000;fontColor=#000000;" vertex="1" parent="1">
                    <mxGeometry x="976" y="-359" width="120" height="80" as="geometry"/>
                </mxCell>
                <mxCell id="316" value="邮箱" style="ellipse;whiteSpace=wrap;html=1;fontSize=28;fillColor=#FFFFFF;strokeColor=#000000;fontColor=#000000;" vertex="1" parent="1">
                    <mxGeometry x="1093" y="-302" width="120" height="80" as="geometry"/>
                </mxCell>
                <mxCell id="318" value="学号" style="ellipse;whiteSpace=wrap;html=1;fontSize=28;fillColor=#FFFFFF;strokeColor=#000000;fontColor=#000000;" vertex="1" parent="1">
                    <mxGeometry x="1138" y="-196" width="120" height="80" as="geometry"/>
                </mxCell>
                <mxCell id="326" value="时间" style="ellipse;whiteSpace=wrap;html=1;fontSize=28;fillColor=#FFFFFF;strokeColor=#000000;fontColor=#000000;" vertex="1" parent="1">
                    <mxGeometry x="1130" y="418" width="120" height="80" as="geometry"/>
                </mxCell>
                <mxCell id="327" value="ID" style="ellipse;whiteSpace=wrap;html=1;fontSize=28;fillColor=#FFFFFF;strokeColor=#000000;fontColor=#000000;" vertex="1" parent="1">
                    <mxGeometry x="1077" y="538" width="120" height="80" as="geometry"/>
                </mxCell>
                <mxCell id="328" value="试题" style="ellipse;whiteSpace=wrap;html=1;fontSize=28;fillColor=#FFFFFF;strokeColor=#000000;fontColor=#000000;" vertex="1" parent="1">
                    <mxGeometry x="909" y="625" width="120" height="80" as="geometry"/>
                </mxCell>
                <mxCell id="329" value="考生" style="ellipse;whiteSpace=wrap;html=1;fontSize=28;fillColor=#FFFFFF;strokeColor=#000000;fontColor=#000000;" vertex="1" parent="1">
                    <mxGeometry x="717" y="646" width="120" height="80" as="geometry"/>
                </mxCell>
                <mxCell id="400" style="edgeStyle=none;html=1;exitX=0;exitY=1;exitDx=0;exitDy=0;entryX=1;entryY=0;entryDx=0;entryDy=0;strokeColor=#000000;fontSize=28;endArrow=classic;endFill=1;" edge="1" parent="1" source="330" target="392">
                    <mxGeometry relative="1" as="geometry"/>
                </mxCell>
                <mxCell id="401" style="edgeStyle=none;html=1;exitX=0.5;exitY=1;exitDx=0;exitDy=0;strokeColor=#000000;fontSize=28;endArrow=classic;endFill=1;" edge="1" parent="1" source="330">
                    <mxGeometry relative="1" as="geometry">
                        <mxPoint x="280.84375" y="643.8123728434248" as="targetPoint"/>
                    </mxGeometry>
                </mxCell>
                <mxCell id="402" style="edgeStyle=none;html=1;exitX=0.75;exitY=1;exitDx=0;exitDy=0;entryX=0.5;entryY=0;entryDx=0;entryDy=0;strokeColor=#000000;fontSize=28;endArrow=classic;endFill=1;" edge="1" parent="1" source="330" target="395">
                    <mxGeometry relative="1" as="geometry"/>
                </mxCell>
                <mxCell id="403" style="edgeStyle=none;html=1;exitX=1;exitY=1;exitDx=0;exitDy=0;entryX=0;entryY=0;entryDx=0;entryDy=0;strokeColor=#000000;fontSize=28;endArrow=classic;endFill=1;" edge="1" parent="1" source="330" target="399">
                    <mxGeometry relative="1" as="geometry"/>
                </mxCell>
                <mxCell id="330" value="题库" style="rounded=0;whiteSpace=wrap;html=1;fontSize=28;fillColor=#FFFFFF;strokeColor=#000000;fontColor=#000000;" vertex="1" parent="1">
                    <mxGeometry x="273" y="347" width="113" height="90" as="geometry"/>
                </mxCell>
                <mxCell id="391" style="edgeStyle=none;html=1;exitX=0;exitY=0.5;exitDx=0;exitDy=0;entryX=1;entryY=0.5;entryDx=0;entryDy=0;strokeColor=#000000;fontSize=28;endArrow=none;endFill=0;" edge="1" parent="1" source="331" target="353">
                    <mxGeometry relative="1" as="geometry"/>
                </mxCell>
                <mxCell id="427" style="edgeStyle=none;rounded=0;html=1;exitX=1;exitY=0.5;exitDx=0;exitDy=0;entryX=0;entryY=0.5;entryDx=0;entryDy=0;strokeColor=#000000;fontSize=28;endArrow=none;endFill=0;" edge="1" parent="1" source="331" target="326">
                    <mxGeometry relative="1" as="geometry"/>
                </mxCell>
                <mxCell id="428" style="edgeStyle=none;rounded=0;html=1;exitX=0.75;exitY=1;exitDx=0;exitDy=0;entryX=0;entryY=0.5;entryDx=0;entryDy=0;strokeColor=#000000;fontSize=28;endArrow=none;endFill=0;" edge="1" parent="1" source="331" target="327">
                    <mxGeometry relative="1" as="geometry"/>
                </mxCell>
                <mxCell id="429" style="edgeStyle=none;rounded=0;html=1;exitX=0.5;exitY=1;exitDx=0;exitDy=0;entryX=0.5;entryY=0;entryDx=0;entryDy=0;strokeColor=#000000;fontSize=28;endArrow=none;endFill=0;" edge="1" parent="1" source="331" target="328">
                    <mxGeometry relative="1" as="geometry"/>
                </mxCell>
                <mxCell id="430" style="edgeStyle=none;rounded=0;html=1;exitX=0.25;exitY=1;exitDx=0;exitDy=0;entryX=0.5;entryY=0;entryDx=0;entryDy=0;strokeColor=#000000;fontSize=28;endArrow=none;endFill=0;" edge="1" parent="1" source="331" target="329">
                    <mxGeometry relative="1" as="geometry"/>
                </mxCell>
                <mxCell id="331" value="考试" style="rounded=0;whiteSpace=wrap;html=1;fontSize=28;fillColor=#FFFFFF;strokeColor=#000000;fontColor=#000000;" vertex="1" parent="1">
                    <mxGeometry x="863" y="347" width="113" height="90" as="geometry"/>
                </mxCell>
                <mxCell id="383" style="edgeStyle=none;html=1;exitX=0.5;exitY=0;exitDx=0;exitDy=0;entryX=0.5;entryY=1;entryDx=0;entryDy=0;strokeColor=#000000;fontSize=28;endArrow=classic;endFill=1;" edge="1" parent="1" source="332" target="335">
                    <mxGeometry relative="1" as="geometry"/>
                </mxCell>
                <mxCell id="384" style="edgeStyle=none;html=1;exitX=1;exitY=0;exitDx=0;exitDy=0;entryX=0;entryY=1;entryDx=0;entryDy=0;strokeColor=#000000;fontSize=28;endArrow=classic;endFill=1;" edge="1" parent="1" source="332" target="337">
                    <mxGeometry relative="1" as="geometry"/>
                </mxCell>
                <mxCell id="385" style="edgeStyle=none;html=1;exitX=1;exitY=0.5;exitDx=0;exitDy=0;entryX=0;entryY=0.5;entryDx=0;entryDy=0;strokeColor=#000000;fontSize=28;endArrow=classic;endFill=1;" edge="1" parent="1" source="332" target="338">
                    <mxGeometry relative="1" as="geometry"/>
                </mxCell>
                <mxCell id="386" style="edgeStyle=none;html=1;exitX=0;exitY=0.5;exitDx=0;exitDy=0;entryX=1;entryY=0.5;entryDx=0;entryDy=0;strokeColor=#000000;fontSize=28;endArrow=classic;endFill=1;" edge="1" parent="1" source="332" target="333">
                    <mxGeometry relative="1" as="geometry"/>
                </mxCell>
                <mxCell id="387" style="edgeStyle=none;html=1;exitX=0;exitY=0;exitDx=0;exitDy=0;entryX=1;entryY=1;entryDx=0;entryDy=0;strokeColor=#000000;fontSize=28;endArrow=classic;endFill=1;" edge="1" parent="1" source="332" target="336">
                    <mxGeometry relative="1" as="geometry"/>
                </mxCell>
                <mxCell id="389" style="edgeStyle=none;html=1;exitX=0.5;exitY=1;exitDx=0;exitDy=0;entryX=0.5;entryY=0;entryDx=0;entryDy=0;strokeColor=#000000;fontSize=28;endArrow=none;endFill=0;" edge="1" parent="1" source="332" target="347">
                    <mxGeometry relative="1" as="geometry"/>
                </mxCell>
                <mxCell id="424" style="edgeStyle=none;html=1;exitX=0.5;exitY=1;exitDx=0;exitDy=0;entryX=0.5;entryY=0;entryDx=0;entryDy=0;strokeColor=#000000;fontSize=28;endArrow=none;endFill=0;" edge="1" parent="1" source="332" target="423">
                    <mxGeometry relative="1" as="geometry"/>
                </mxCell>
                <mxCell id="332" value="教师" style="rounded=0;whiteSpace=wrap;html=1;fontSize=28;fillColor=#FFFFFF;strokeColor=#000000;fontColor=#000000;" vertex="1" parent="1">
                    <mxGeometry x="34" y="-136" width="113" height="90" as="geometry"/>
                </mxCell>
                <mxCell id="333" value="ID" style="ellipse;whiteSpace=wrap;html=1;fontSize=28;fillColor=#FFFFFF;strokeColor=#000000;fontColor=#000000;" vertex="1" parent="1">
                    <mxGeometry x="-226" y="-164" width="120" height="80" as="geometry"/>
                </mxCell>
                <mxCell id="335" value="手机号" style="ellipse;whiteSpace=wrap;html=1;fontSize=28;fillColor=#FFFFFF;strokeColor=#000000;fontColor=#000000;" vertex="1" parent="1">
                    <mxGeometry x="25" y="-341" width="120" height="80" as="geometry"/>
                </mxCell>
                <mxCell id="336" value="真实姓名" style="ellipse;whiteSpace=wrap;html=1;fontSize=28;fillColor=#FFFFFF;strokeColor=#000000;fontColor=#000000;" vertex="1" parent="1">
                    <mxGeometry x="-158" y="-289" width="120" height="80" as="geometry"/>
                </mxCell>
                <mxCell id="337" value="邮箱" style="ellipse;whiteSpace=wrap;html=1;fontSize=28;fillColor=#FFFFFF;strokeColor=#000000;fontColor=#000000;" vertex="1" parent="1">
                    <mxGeometry x="231" y="-305" width="120" height="80" as="geometry"/>
                </mxCell>
                <mxCell id="338" value="工号" style="ellipse;whiteSpace=wrap;html=1;fontSize=28;fillColor=#FFFFFF;strokeColor=#000000;fontColor=#000000;" vertex="1" parent="1">
                    <mxGeometry x="283" y="-146" width="120" height="80" as="geometry"/>
                </mxCell>
                <mxCell id="390" value="n" style="edgeStyle=none;html=1;exitX=0.5;exitY=1;exitDx=0;exitDy=0;entryX=0.5;entryY=0;entryDx=0;entryDy=0;strokeColor=#000000;fontSize=28;endArrow=classic;endFill=1;labelBackgroundColor=#FFFFFF;fontColor=#000000;" edge="1" parent="1" source="347" target="330">
                    <mxGeometry relative="1" as="geometry"/>
                </mxCell>
                <mxCell id="347" value="创建" style="rhombus;whiteSpace=wrap;html=1;fontSize=28;fillColor=#FFFFFF;strokeColor=#000000;fontColor=#000000;" vertex="1" parent="1">
                    <mxGeometry x="264.75" y="110" width="129.5" height="129" as="geometry"/>
                </mxCell>
                <mxCell id="355" value="1" style="edgeStyle=none;html=1;exitX=0;exitY=0.5;exitDx=0;exitDy=0;entryX=1;entryY=0.5;entryDx=0;entryDy=0;strokeColor=#000000;fontSize=28;fontColor=#000000;labelBackgroundColor=#FFFFFF;" edge="1" parent="1" source="353" target="330">
                    <mxGeometry relative="1" as="geometry"/>
                </mxCell>
                <mxCell id="353" value="获取" style="rhombus;whiteSpace=wrap;html=1;fontSize=28;fillColor=#FFFFFF;strokeColor=#000000;fontColor=#000000;" vertex="1" parent="1">
                    <mxGeometry x="609" y="327.5" width="129.5" height="129" as="geometry"/>
                </mxCell>
                <mxCell id="363" value="1" style="edgeStyle=none;html=1;exitX=0.5;exitY=1;exitDx=0;exitDy=0;entryX=0.5;entryY=0;entryDx=0;entryDy=0;strokeColor=#000000;fontSize=28;endArrow=classic;endFill=1;labelBackgroundColor=#FFFFFF;fontColor=#000000;" edge="1" parent="1" source="360" target="331">
                    <mxGeometry relative="1" as="geometry"/>
                </mxCell>
                <mxCell id="360" value="考试" style="rhombus;whiteSpace=wrap;html=1;fontSize=28;fillColor=#FFFFFF;strokeColor=#000000;fontColor=#000000;" vertex="1" parent="1">
                    <mxGeometry x="854.75" y="96" width="129.5" height="129" as="geometry"/>
                </mxCell>
                <mxCell id="392" value="题目" style="ellipse;whiteSpace=wrap;html=1;fontSize=28;fillColor=#FFFFFF;strokeColor=#000000;fontColor=#000000;" vertex="1" parent="1">
                    <mxGeometry x="75" y="518" width="120" height="80" as="geometry"/>
                </mxCell>
                <mxCell id="393" value="试卷" style="ellipse;whiteSpace=wrap;html=1;fontSize=28;fillColor=#FFFFFF;strokeColor=#000000;fontColor=#000000;" vertex="1" parent="1">
                    <mxGeometry x="195" y="579" width="120" height="80" as="geometry"/>
                </mxCell>
                <mxCell id="395" value="答案" style="ellipse;whiteSpace=wrap;html=1;fontSize=28;fillColor=#FFFFFF;strokeColor=#000000;fontColor=#000000;" vertex="1" parent="1">
                    <mxGeometry x="364" y="570" width="120" height="80" as="geometry"/>
                </mxCell>
                <mxCell id="399" value="分数" style="ellipse;whiteSpace=wrap;html=1;fontSize=28;fillColor=#FFFFFF;strokeColor=#000000;fontColor=#000000;" vertex="1" parent="1">
                    <mxGeometry x="533" y="521" width="120" height="80" as="geometry"/>
                </mxCell>
                <mxCell id="434" value="n" style="edgeStyle=none;rounded=0;html=1;exitX=0.5;exitY=1;exitDx=0;exitDy=0;entryX=0;entryY=0.5;entryDx=0;entryDy=0;strokeColor=#000000;fontSize=28;endArrow=none;endFill=0;labelBackgroundColor=#FFFFFF;fontColor=#000000;" edge="1" parent="1" source="423" target="329">
                    <mxGeometry relative="1" as="geometry">
                        <Array as="points">
                            <mxPoint x="-65" y="686"/>
                        </Array>
                    </mxGeometry>
                </mxCell>
                <mxCell id="423" value="设置" style="rhombus;whiteSpace=wrap;html=1;fontSize=28;fillColor=#FFFFFF;strokeColor=#000000;fontColor=#000000;" vertex="1" parent="1">
                    <mxGeometry x="-130" y="110" width="129.5" height="129" as="geometry"/>
                </mxCell>
            </root>
        </mxGraphModel>
    </diagram>
</mxfile>